<svg xmlns="http://www.w3.org/2000/svg" width="20" height="20" viewBox="0 0 20 20" fill="none">
<rect width="20" height="20" rx="10" fill="white"/>
<path d="M8.83329 13.8333L14.7083 7.95832L13.5416 6.79166L8.83329 11.5L6.45829 9.12499L5.29163 10.2917L8.83329 13.8333ZM9.99996 18.3333C8.84718 18.3333 7.76385 18.1144 6.74996 17.6767C5.73607 17.2389 4.85413 16.6453 4.10413 15.8958C3.35413 15.1458 2.76051 14.2639 2.32329 13.25C1.88607 12.2361 1.66718 11.1528 1.66663 9.99999C1.66663 8.84721 1.88551 7.76388 2.32329 6.74999C2.76107 5.7361 3.35468 4.85416 4.10413 4.10416C4.85413 3.35416 5.73607 2.76055 6.74996 2.32332C7.76385 1.8861 8.84718 1.66721 9.99996 1.66666C11.1527 1.66666 12.2361 1.88555 13.25 2.32332C14.2638 2.7611 15.1458 3.35471 15.8958 4.10416C16.6458 4.85416 17.2397 5.7361 17.6775 6.74999C18.1152 7.76388 18.3338 8.84721 18.3333 9.99999C18.3333 11.1528 18.1144 12.2361 17.6766 13.25C17.2388 14.2639 16.6452 15.1458 15.8958 15.8958C15.1458 16.6458 14.2638 17.2397 13.25 17.6775C12.2361 18.1153 11.1527 18.3339 9.99996 18.3333Z" fill="#5612C4"/>
</svg>